<svg width="17" height="24" viewBox="0 0 17 24" fill="none" xmlns="http://www.w3.org/2000/svg">
<path d="M6.69875 10.5272L0.758783 4.4726C-0.856798 2.82515 0.281129 0 2.55955 0H14.4369C16.7154 0 17.8533 2.82515 16.239 4.4726L10.2977 10.5272C9.81926 11.0139 9.17242 11.287 8.49824 11.287C7.82406 11.287 7.17722 11.0139 6.69875 10.5272Z" fill="#4573BA"/>
<path d="M6.69857 13.4715L0.7586 19.5274C-0.856981 21.1735 0.280946 23.9987 2.55936 23.9987H14.4368C16.7152 23.9987 17.8531 21.1735 16.2388 19.5274L10.2975 13.4715C9.81908 12.9848 9.17224 12.7117 8.49806 12.7117C7.82388 12.7117 7.17704 12.9848 6.69857 13.4715Z" fill="#45B98C"/>
</svg>
